<?xml version="1.0" standalone="no"?>
<!DOCTYPE svg PUBLIC "-//W3C//DTD SVG 20010904//EN"
 "http://www.w3.org/TR/2001/REC-SVG-20010904/DTD/svg10.dtd">
<svg version="1.0" xmlns="http://www.w3.org/2000/svg"
 width="500.000000pt" height="500.000000pt" viewBox="0 0 500.000000 500.000000"
 preserveAspectRatio="xMidYMid meet">

<g transform="translate(0.000000,500.000000) scale(0.100000,-0.100000)"
fill="#000000" stroke="none">
<path d="M2280 4489 c-336 -34 -699 -180 -988 -396 -100 -75 -268 -237 -345
-333 -285 -354 -447 -810 -447 -1260 0 -450 162 -906 447 -1260 77 -96 245
-258 345 -333 665 -499 1559 -542 2256 -109 181 112 379 286 505 442 489 606
584 1441 243 2135 -111 225 -230 390 -408 560 -433 417 -1006 614 -1608 554z
m550 -38 c405 -71 743 -241 1032 -520 328 -316 516 -672 594 -1126 25 -143 25
-462 0 -609 -53 -321 -179 -621 -367 -876 -80 -109 -300 -329 -409 -409 -250
-185 -537 -308 -846 -362 -185 -33 -483 -33 -668 0 -308 54 -596 177 -846 361
-110 81 -329 301 -413 415 -189 256 -322 582 -369 901 -19 129 -16 454 6 579
54 318 170 600 352 857 81 115 336 368 451 448 298 208 614 325 988 364 95 10
384 -3 495 -23z"/>
<path d="M2271 4284 c-63 -8 -116 -16 -118 -18 -2 -2 -1 -16 3 -30 6 -26 8
-27 60 -20 42 5 54 3 54 -7 0 -18 19 -185 26 -226 4 -26 10 -33 27 -33 49 0
51 7 35 148 l-14 131 53 7 c50 6 53 8 53 35 0 34 -1 34 -179 13z"/>
<path d="M2660 4176 c-12 -67 -26 -139 -31 -161 -4 -22 -5 -43 -1 -46 12 -10
137 -29 190 -29 40 0 57 5 83 27 95 80 88 233 -12 281 -24 11 -81 27 -126 35
l-81 14 -22 -121z m155 34 c70 -16 94 -76 61 -155 -20 -46 -47 -58 -113 -50
-53 6 -55 8 -50 33 3 15 11 62 18 105 14 84 13 84 84 67z"/>
<path d="M2028 4238 c-16 -5 -28 -15 -28 -22 0 -7 18 -63 40 -125 22 -61 40
-114 40 -117 0 -2 -46 45 -101 105 l-101 109 -59 -20 c-33 -11 -59 -23 -59
-26 0 -6 101 -303 105 -310 4 -5 65 20 65 27 0 4 -18 61 -40 126 l-39 120 100
-107 100 -107 60 22 c33 12 58 26 56 32 -2 5 -26 76 -53 158 -27 81 -51 147
-54 146 -3 0 -17 -5 -32 -11z"/>
<path d="M3070 4184 c-6 -15 -34 -83 -62 -152 -29 -70 -47 -127 -42 -132 5 -4
59 -28 119 -53 110 -45 110 -45 122 -23 7 11 12 24 13 28 0 3 -35 21 -77 38
-43 18 -81 34 -85 36 -8 5 10 62 23 69 4 3 41 -8 80 -25 40 -17 73 -29 74 -28
1 2 8 13 14 26 11 21 9 24 -26 38 -127 52 -123 49 -110 83 6 17 16 31 21 31 5
0 45 -14 88 -32 42 -17 80 -30 82 -27 2 2 7 15 10 29 7 25 -14 36 -225 118 -5
2 -14 -9 -19 -24z"/>
<path d="M3316 3927 c-47 -74 -86 -136 -86 -140 0 -6 164 -115 185 -123 10 -4
41 45 33 50 -2 1 -30 20 -64 41 l-61 39 73 115 73 115 -27 18 c-15 10 -30 18
-34 18 -3 0 -45 -60 -92 -133z"/>
<path d="M1518 4013 c-21 -14 -38 -33 -38 -42 0 -17 68 -323 73 -328 2 -1 17
6 34 17 29 17 31 21 23 54 -8 34 -7 36 54 75 56 37 62 39 81 26 35 -27 44 -27
75 -8 l31 19 -135 107 c-75 59 -141 107 -148 106 -7 0 -30 -12 -50 -26z m99
-94 c29 -23 53 -45 53 -49 0 -9 -62 -50 -76 -50 -5 0 -16 32 -25 70 -9 39 -13
70 -11 70 3 0 29 -19 59 -41z"/>
<path d="M2306 3909 c-97 -24 -189 -80 -274 -165 -46 -46 -102 -94 -125 -105
-23 -12 -81 -49 -129 -81 -232 -159 -404 -386 -492 -648 -47 -142 -66 -258
-66 -410 0 -287 85 -543 257 -771 40 -53 105 -127 145 -164 80 -74 243 -186
326 -225 l53 -24 -6 -48 c-6 -43 -5 -48 12 -48 16 0 23 16 42 95 13 52 26 95
29 95 4 0 26 -10 50 -22 40 -21 43 -26 37 -53 -3 -16 -8 -49 -12 -72 l-6 -43
62 0 c59 0 61 1 61 26 0 20 5 25 23 24 12 -1 27 -2 34 -1 19 2 53 43 53 63 0
13 8 18 30 18 16 0 66 7 110 16 81 16 81 16 96 -5 8 -11 24 -21 34 -21 10 0
21 -4 25 -9 3 -5 19 -12 35 -16 56 -12 88 -34 95 -65 5 -23 12 -30 29 -30 19
0 22 4 19 23 -4 20 2 25 54 41 227 70 462 241 616 445 171 228 257 485 257
771 0 150 -19 269 -66 410 -66 199 -163 350 -344 535 -60 61 -141 145 -182
187 -122 125 -272 211 -456 260 -88 23 -359 34 -426 17z m439 -64 c245 -72
450 -226 538 -403 36 -74 41 -93 45 -171 6 -117 -13 -162 -93 -221 -31 -23
-58 -40 -59 -38 -1 1 -15 29 -31 62 -76 160 -299 319 -521 372 -99 23 -282 24
-358 0 -120 -36 -217 -100 -270 -176 l-17 -25 -19 25 c-11 14 -27 50 -36 80
-15 47 -15 64 -5 115 37 180 209 359 391 405 19 5 105 8 190 6 132 -3 168 -8
245 -31z m-815 -229 c0 -2 -12 -30 -27 -62 -23 -49 -28 -73 -28 -139 0 -71 3
-86 32 -136 l31 -56 -34 -84 c-73 -182 -85 -351 -31 -457 21 -41 25 -57 17
-72 -18 -33 -12 -104 13 -151 13 -24 30 -62 37 -84 22 -68 123 -157 240 -213
55 -26 100 -50 100 -54 0 -13 -156 -21 -224 -10 -55 8 -82 19 -125 50 -31 22
-84 53 -117 70 -34 17 -64 38 -68 47 -3 9 -6 62 -6 116 0 105 -7 131 -41 149
-34 19 -65 -11 -87 -81 l-18 -60 -12 39 c-24 81 -73 113 -114 75 -21 -19 -25
-107 -7 -179 11 -42 10 -46 -14 -68 -14 -13 -31 -43 -37 -67 -25 -90 7 -159
81 -179 29 -8 43 -21 63 -54 15 -25 46 -57 74 -75 82 -53 142 -67 307 -75 82
-4 151 -9 154 -11 2 -2 -2 -33 -8 -69 -6 -35 -16 -109 -21 -163 -5 -54 -17
-120 -25 -148 -9 -27 -18 -56 -21 -63 -5 -16 -52 3 -149 60 -209 123 -388 314
-494 526 -47 94 -98 254 -117 367 -19 121 -14 339 11 455 76 343 287 638 586
820 60 37 79 45 79 36z m696 -191 c228 -58 413 -187 495 -346 32 -61 33 -70
34 -174 0 -60 -4 -123 -8 -139 l-8 -29 -23 49 c-78 164 -325 319 -589 369
-216 41 -464 -10 -587 -121 -50 -45 -50 -43 6 94 82 199 154 265 334 303 123
26 228 24 346 -6z m814 -87 c123 -143 199 -273 255 -440 148 -444 36 -939
-287 -1269 -138 -141 -258 -223 -437 -295 -102 -42 -142 -52 -140 -36 0 4 12
32 27 62 22 44 40 63 90 96 84 55 117 88 147 148 45 90 32 183 -36 261 -80 91
-298 225 -367 225 -17 0 -34 5 -37 10 -4 6 29 10 92 10 110 0 211 19 271 49
59 30 129 112 140 167 12 55 6 84 -18 84 -15 0 -17 7 -13 44 3 25 1 59 -6 76
-9 27 -7 39 15 82 38 74 64 190 64 282 l1 81 59 43 c82 60 113 122 112 230 0
51 -7 97 -20 135 -20 55 -20 57 -2 47 11 -6 51 -47 90 -92z m-951 -229 c36 -5
114 -26 174 -46 95 -32 107 -39 107 -59 0 -25 -26 -44 -60 -44 -13 0 -24 -8
-27 -20 -14 -54 -265 -50 -350 5 -27 18 -42 20 -25 3 26 -26 10 -27 -37 -4
-84 43 -146 121 -120 152 6 7 23 15 37 17 57 9 239 6 301 -4z m-405 -74 c17
-40 90 -91 176 -122 68 -25 120 -35 120 -24 0 5 18 2 41 -5 22 -8 74 -17 114
-21 l74 -6 -20 -25 c-25 -33 -19 -37 27 -16 22 9 77 19 124 23 l85 7 -37 19
c-46 23 -47 31 -8 40 21 5 32 14 36 32 6 24 8 23 37 -23 17 -27 46 -92 64
-144 39 -107 44 -177 18 -249 -8 -24 -15 -46 -15 -49 0 -2 19 16 41 42 35 40
46 47 73 44 92 -9 59 -195 -39 -214 -18 -3 -42 -1 -54 6 -19 10 -27 5 -71 -43
-120 -131 -369 -199 -555 -152 -91 23 -194 76 -253 130 -81 73 -86 87 -91 260
-8 284 -6 327 12 381 17 49 71 144 82 144 2 0 11 -16 19 -35z m-88 -17 c-29
-52 -66 -172 -66 -219 0 -25 -3 -30 -12 -21 -6 6 -12 40 -12 74 0 80 34 162
78 189 17 10 32 19 34 19 2 0 -8 -19 -22 -42z m991 -140 c102 -104 121 -152
88 -223 -13 -30 -13 -29 -14 27 -1 31 -5 59 -9 62 -5 3 -15 -18 -22 -47 l-14
-52 -12 74 c-16 89 -29 107 -39 55 l-7 -38 -34 89 c-50 128 -49 125 -27 125
10 0 51 -33 90 -72z m-1034 -300 c3 -18 2 -51 -2 -73 l-8 -40 -11 28 c-13 31
-16 76 -6 101 10 26 21 19 27 -16z m-252 -214 c3 -80 11 -131 22 -156 23 -51
22 -115 -4 -157 -18 -30 -23 -33 -56 -28 -20 4 -52 19 -72 35 -20 16 -51 37
-69 48 -46 26 -40 56 13 69 22 6 56 20 75 32 43 28 27 30 -18 3 -18 -11 -43
-20 -56 -20 -13 0 -34 -8 -46 -18 -30 -24 -20 -54 26 -83 28 -17 32 -24 23
-35 -29 -35 -99 10 -99 64 0 39 19 94 38 109 13 11 22 9 49 -7 39 -23 57 -26
30 -6 -28 21 -60 123 -61 195 -1 88 16 88 50 -1 30 -78 61 -138 73 -138 4 0
12 37 18 83 25 179 55 185 64 11z m123 -199 c79 -45 100 -63 120 -101 40 -81
23 -160 -43 -198 -30 -18 -41 -18 -98 -9 -94 17 -220 83 -157 83 30 0 81 63
100 123 14 47 16 65 7 97 -13 50 -7 50 71 5z m666 -68 c0 -12 -9 -28 -20 -35
-13 -8 -20 -23 -20 -45 0 -28 -3 -32 -26 -32 -26 0 -26 1 -20 50 3 28 6 58 6
68 0 13 9 17 40 17 35 0 40 -3 40 -23z m108 -64 c-26 -28 -60 -47 -100 -57
-26 -6 -28 -4 -28 28 0 38 10 48 62 65 20 7 42 19 49 27 11 14 14 12 27 -11
12 -25 12 -29 -10 -52z m-208 -11 c0 -31 -26 -39 -51 -16 -32 29 -42 53 -29
69 17 20 80 -21 80 -53z m-207 32 c89 6 107 5 107 -7 0 -8 7 -21 16 -28 14
-11 11 -14 -22 -24 -29 -8 -39 -17 -46 -40 -12 -44 -2 -71 32 -85 26 -11 40
-10 90 5 l59 18 59 -27 c93 -41 122 -34 122 30 0 25 -16 64 -30 74 -4 3 13 25
37 49 41 41 45 42 50 22 5 -20 6 -20 18 -4 11 14 18 15 48 6 56 -17 194 -103
258 -162 98 -88 122 -167 78 -257 -19 -41 -77 -101 -116 -123 -17 -9 -19 -7
-15 20 5 37 -17 72 -58 89 -26 11 -37 10 -70 -3 -22 -8 -40 -12 -40 -8 0 15
70 100 101 122 17 12 52 30 77 40 50 19 39 25 -16 10 -31 -9 -33 -9 -27 12 6
22 6 22 -12 -1 l-19 -24 -65 17 c-35 9 -74 23 -86 31 -34 22 -41 16 -10 -9
l27 -23 -20 -79 c-11 -43 -20 -88 -20 -100 0 -29 -24 -49 -50 -42 -26 7 -62
-29 -58 -58 3 -18 -6 -21 -85 -32 -85 -13 -89 -12 -118 9 -35 26 -89 28 -133
5 -26 -14 -33 -14 -79 4 -28 11 -55 23 -60 26 -19 12 23 286 53 342 17 33 50
121 44 121 -3 0 -19 -29 -35 -65 l-31 -65 -66 0 c-37 0 -83 3 -103 6 l-37 6
21 35 c21 37 28 115 15 165 l-8 26 58 -15 c43 -12 83 -14 165 -9z m-594 -64
c0 -10 -3 -8 -9 5 -12 27 -12 43 0 25 5 -8 9 -22 9 -30z m1297 -413 c24 -21
26 -28 20 -61 -5 -28 -16 -42 -40 -57 -23 -13 -36 -30 -40 -51 -3 -18 -13 -42
-21 -55 -19 -29 -55 -31 -55 -4 0 11 -5 23 -12 27 -8 5 -9 0 -6 -14 4 -12 2
-24 -3 -27 -18 -12 -47 16 -57 52 l-10 38 -1 -32 c-1 -34 -12 -42 -28 -20 -31
39 -16 124 29 162 16 13 48 29 71 35 23 6 51 15 62 20 34 15 63 11 91 -13z
m-267 -79 c-12 -20 -14 -21 -17 -5 -2 10 2 25 9 34 18 21 23 0 8 -29z"/>
<path d="M2061 3616 c-1 -62 15 -116 46 -152 22 -26 23 -26 11 -4 -21 35 -39
95 -48 154 l-8 51 -1 -49z"/>
<path d="M3071 3585 c-1 -54 -35 -137 -78 -193 -22 -29 -23 -33 -6 -23 40 21
87 109 91 171 2 31 2 65 -1 76 -2 10 -5 -3 -6 -31z"/>
<path d="M2083 2949 c-48 -14 -48 -26 0 -33 23 -4 66 -20 94 -36 29 -17 55
-30 57 -30 3 0 0 14 -6 30 -11 32 -71 81 -98 79 -8 0 -29 -5 -47 -10z"/>
<path d="M2057 2786 c-21 -21 -38 -51 -46 -81 -14 -56 -9 -69 12 -28 16 31 54
69 62 62 2 -3 0 -23 -6 -44 -27 -97 8 -180 74 -173 85 9 104 193 27 270 -40
39 -80 38 -123 -6z m81 -108 c4 -34 -29 -56 -48 -32 -10 11 -10 20 -1 40 15
33 45 28 49 -8z m76 -39 c-8 -14 -34 -11 -34 4 0 8 3 17 7 20 9 9 34 -13 27
-24z"/>
<path d="M2661 2757 c-42 -21 -82 -81 -87 -128 l-5 -44 25 46 c13 25 31 51 39
57 12 10 12 5 0 -40 -25 -93 -2 -152 63 -164 49 -9 71 3 95 52 16 34 20 56 16
87 l-6 42 24 -50 25 -50 0 41 c0 109 -106 194 -189 151z m37 -113 c4 -25 -22
-49 -43 -40 -15 5 -21 47 -8 60 14 14 48 1 51 -20z m89 -20 c8 -20 -8 -36 -26
-25 -15 10 -8 41 9 41 6 0 13 -7 17 -16z"/>
<path d="M2289 2501 c-23 -19 -23 -20 -6 -38 17 -17 18 -17 11 1 -5 13 -1 23
11 32 10 8 16 16 13 19 -3 3 -16 -3 -29 -14z"/>
<path d="M3002 2493 c-10 -4 -52 -77 -52 -90 0 -8 56 11 62 21 14 21 8 30 -7
10 -14 -19 -14 -19 -15 3 0 24 37 56 53 46 6 -3 7 -1 3 5 -7 12 -22 14 -44 5z"/>
<path d="M2252 2363 c8 -10 21 -33 28 -52 18 -44 83 -91 127 -91 66 0 108 37
136 117 l13 39 -50 -13 c-67 -17 -174 -16 -226 2 -41 15 -43 14 -28 -2z m258
-63 c-36 -71 -122 -89 -177 -38 -27 25 -30 53 -7 62 9 3 43 7 77 7 34 1 76 4
92 8 17 4 31 6 33 5 2 -1 -6 -21 -18 -44z"/>
<path d="M2207 1834 c-14 -14 -7 -65 9 -71 26 -10 49 11 49 43 0 24 -5 30 -25
32 -14 2 -29 0 -33 -4z"/>
<path d="M2509 1789 c-15 -29 3 -69 31 -69 28 0 46 40 31 69 -7 11 -20 21 -31
21 -11 0 -24 -10 -31 -21z"/>
<path d="M2156 1644 c-9 -8 -16 -24 -16 -34 0 -18 25 -50 39 -50 13 0 51 40
51 55 0 17 -27 45 -45 45 -7 0 -21 -7 -29 -16z"/>
<path d="M2485 1614 c-24 -25 -16 -68 14 -72 25 -4 51 19 51 44 0 14 -27 44
-40 44 -5 0 -16 -7 -25 -16z"/>
<path d="M3634 3869 c-19 -21 -18 -21 5 -40 l23 -19 -27 -32 c-15 -18 -48 -55
-72 -81 l-45 -48 -22 20 -23 21 -19 -21 -19 -21 75 -70 74 -69 18 23 c16 22
16 24 -4 45 l-20 22 68 75 c38 42 70 76 72 76 1 0 14 -7 28 -16 23 -16 26 -16
39 2 8 10 15 22 15 25 0 7 -134 129 -142 129 -3 0 -13 -9 -24 -21z"/>
<path d="M1210 3765 l-105 -105 23 -22 22 -22 40 39 40 39 95 -94 95 -95 27
28 28 27 -95 95 -94 95 37 38 37 38 -23 22 -23 22 -104 -105z"/>
<path d="M3796 3625 c-71 -25 -136 -104 -136 -165 0 -71 65 -150 122 -150 30
0 30 -1 15 -18 -21 -23 -21 -31 -1 -53 15 -17 20 -15 85 32 38 28 69 53 69 55
0 3 -25 39 -56 80 -49 67 -57 74 -72 63 -9 -8 -19 -14 -20 -15 -2 -2 13 -24
33 -51 l36 -48 -24 -8 c-34 -11 -74 7 -97 45 -27 44 -25 70 6 108 57 67 128
79 175 29 30 -32 39 -85 19 -105 -6 -6 -1 -20 15 -39 l25 -30 20 24 c56 66
-19 222 -121 251 -42 12 -45 12 -93 -5z"/>
<path d="M1045 3546 c-64 -28 -124 -127 -111 -182 10 -40 54 -74 94 -74 30 0
44 9 94 60 33 33 62 60 64 60 3 0 14 -5 25 -10 27 -15 24 -53 -8 -90 -21 -25
-32 -31 -55 -28 -23 4 -33 -1 -50 -24 -11 -16 -18 -32 -15 -34 3 -3 23 -8 45
-11 51 -7 94 17 132 76 56 84 45 157 -27 187 -48 20 -81 6 -137 -58 -33 -38
-49 -49 -67 -46 -56 8 -19 104 42 110 20 2 36 12 47 30 9 15 14 29 12 31 -15
13 -59 14 -85 3z"/>
<path d="M3985 3259 c-77 -33 -144 -64 -148 -68 -6 -6 3 -40 18 -69 1 -1 27 9
59 23 31 14 60 25 65 25 8 0 61 -112 61 -129 0 -5 -27 -20 -60 -34 -33 -15
-60 -29 -60 -31 0 -4 20 -54 26 -64 2 -4 287 118 297 127 7 7 -10 71 -19 71
-2 0 -29 -11 -60 -25 -32 -14 -60 -22 -64 -18 -4 5 -18 36 -33 70 l-26 62 46
21 c25 11 49 20 54 20 16 0 19 18 8 49 -6 17 -14 31 -17 31 -4 -1 -70 -28
-147 -61z"/>
<path d="M835 3238 c-9 -23 -10 -35 -3 -40 6 -3 63 -26 127 -50 l116 -43 -149
-10 -148 -10 -19 -45 c-10 -25 -18 -52 -18 -61 -1 -11 42 -32 148 -72 81 -31
151 -57 154 -57 6 0 29 62 24 66 -2 2 -53 22 -113 45 -60 22 -113 45 -118 50
-6 5 17 9 60 9 39 0 104 3 145 6 l75 7 22 55 c12 31 18 59 14 63 -4 3 -52 23
-107 44 -55 21 -122 46 -148 56 l-48 19 -14 -32z"/>
<path d="M4247 2952 c-26 -3 -27 -5 -21 -40 16 -79 22 -74 -123 -101 l-132
-24 6 -31 c3 -17 8 -34 12 -38 3 -3 60 5 126 17 66 13 125 24 132 25 6 0 14
-22 18 -50 6 -47 9 -50 36 -50 21 0 29 5 29 18 0 19 -48 275 -52 276 -2 1 -16
0 -31 -2z"/>
<path d="M706 2843 c-14 -69 -28 -164 -25 -167 2 -2 16 -6 32 -10 24 -6 27 -4
27 18 0 14 4 27 9 31 5 3 55 -2 109 -11 l100 -17 -5 -33 c-5 -32 -4 -34 25
-34 30 0 30 1 41 68 20 118 20 127 -11 130 -22 3 -27 -2 -33 -26 l-6 -29 -82
14 c-134 22 -129 20 -122 52 5 24 2 29 -17 35 -35 9 -36 8 -42 -21z"/>
<path d="M831 2343 c-12 -45 -42 -73 -78 -73 -12 0 -25 -4 -28 -10 -3 -5 3
-10 15 -10 43 0 79 -28 91 -73 9 -29 14 -36 16 -22 12 61 44 95 88 95 8 0 15
5 15 10 0 6 -11 10 -25 10 -31 0 -62 30 -71 67 -3 16 -7 33 -9 38 -1 6 -8 -9
-14 -32z"/>
<path d="M4151 2362 c-1 -26 -18 -63 -35 -75 -6 -4 -29 -12 -51 -19 l-40 -11
39 -9 c53 -11 75 -33 83 -82 l6 -40 14 46 c15 52 30 68 76 78 27 6 29 8 12 14
-53 19 -71 34 -87 76 -12 32 -17 38 -17 22z"/>
<path d="M888 1957 c-61 -22 -79 -43 -29 -32 42 9 48 -11 15 -46 -15 -16 -25
-31 -22 -34 2 -3 15 6 27 19 20 21 27 23 48 13 20 -9 27 -7 45 10 18 19 19 25
8 57 -13 42 -16 42 -92 13z m78 -23 c4 -17 2 -29 -7 -35 -19 -12 -29 -7 -47
19 -13 20 -12 23 9 31 35 14 38 13 45 -15z"/>
<path d="M4022 1958 c-7 -7 -12 -24 -12 -39 0 -41 34 -48 69 -15 36 34 61 34
61 0 0 -17 -6 -28 -20 -31 -22 -6 -27 -23 -7 -23 18 0 47 32 47 52 0 53 -44
65 -84 22 -15 -17 -30 -25 -40 -21 -23 9 -20 38 4 44 11 3 20 9 20 14 0 13
-24 11 -38 -3z"/>
<path d="M988 1729 c-32 -16 -58 -34 -58 -40 0 -18 30 -69 41 -69 5 0 3 13 -6
30 -19 37 -19 37 5 50 17 9 23 6 41 -22 19 -31 22 -18 4 24 -4 11 0 20 14 28
19 9 24 7 39 -19 25 -46 36 -37 12 9 -11 22 -24 40 -28 40 -4 -1 -33 -14 -64
-31z"/>
<path d="M3914 1718 c-5 -8 59 -92 91 -118 17 -14 21 0 4 17 -20 20 8 73 39
73 46 0 12 15 -59 26 -39 6 -72 7 -75 2z m86 -30 c-1 -33 -16 -38 -40 -13
l-23 25 31 0 c19 0 32 -5 32 -12z"/>
<path d="M1105 1515 c-34 -33 -33 -77 1 -104 28 -22 54 -28 54 -12 0 5 -10 11
-22 13 -29 4 -50 45 -37 70 5 10 21 25 34 34 23 15 27 15 50 0 18 -12 25 -25
25 -47 0 -18 4 -28 10 -24 15 9 12 48 -6 73 -22 31 -77 30 -109 -3z"/>
<path d="M3794 1532 c-6 -4 -16 -17 -23 -30 -24 -45 25 -68 75 -35 23 15 27
15 41 0 13 -13 14 -19 3 -31 -7 -9 -21 -16 -31 -16 -10 0 -21 -4 -24 -10 -3
-6 4 -10 18 -10 47 0 75 62 41 91 -14 11 -22 10 -53 -8 -43 -25 -74 -17 -55
14 6 10 17 19 25 19 32 3 33 5 19 14 -18 12 -22 12 -36 2z"/>
<path d="M1292 1307 l-52 -53 35 -34 c37 -36 49 -31 14 6 -17 18 -19 26 -10
43 14 26 23 26 46 1 10 -11 23 -20 28 -20 6 0 -1 13 -16 28 -25 26 -26 29 -10
45 16 16 19 15 45 -10 15 -15 30 -24 33 -22 2 3 -10 20 -28 37 l-33 32 -52
-53z"/>
<path d="M3625 1338 c-30 -16 -45 -39 -45 -69 0 -35 45 -79 80 -79 26 0 62 30
73 61 8 23 -21 75 -49 88 -30 13 -34 13 -59 -1z m70 -33 c29 -28 31 -42 9 -73
-19 -28 -57 -29 -84 -2 -24 24 -26 57 -3 82 22 25 49 23 78 -7z"/>
<path d="M1517 1193 l23 -15 -40 -56 c-22 -30 -37 -58 -34 -61 4 -3 16 7 28
23 53 74 63 81 80 67 10 -8 16 -9 16 -3 0 13 -69 62 -85 61 -5 0 0 -7 12 -16z"/>
<path d="M3445 1153 c25 -43 73 -99 79 -92 7 7 -73 119 -85 119 -6 0 -3 -12 6
-27z"/>
<path d="M3242 1064 c-51 -35 -12 -134 53 -134 24 0 39 7 54 26 22 28 27 44
13 44 -5 0 -14 -11 -20 -24 -14 -32 -46 -38 -77 -14 -34 26 -34 72 0 94 19 13
28 14 39 5 8 -7 17 -8 20 -3 16 25 -48 30 -82 6z"/>
<path d="M1694 1005 c-34 -31 -52 -54 -43 -55 8 0 20 5 26 11 17 17 63 -15 63
-44 1 -17 2 -19 9 -7 13 23 24 150 13 150 -5 0 -35 -25 -68 -55z m52 -21 c-6
-21 -9 -23 -27 -13 l-21 11 23 24 c25 27 35 18 25 -22z"/>
<path d="M3055 963 c4 -10 16 -42 27 -70 11 -29 23 -53 28 -53 5 0 1 24 -10
53 -27 79 -31 87 -42 87 -6 0 -7 -8 -3 -17z"/>
<path d="M1948 959 c-26 -15 -22 -39 13 -75 17 -18 28 -37 25 -43 -11 -18 -45
-13 -58 9 -14 21 -28 27 -28 10 0 -17 39 -50 59 -50 21 0 51 25 51 42 0 5 -14
23 -31 39 -19 17 -29 35 -25 44 8 22 31 18 49 -7 l16 -23 0 22 c1 12 -8 27
-18 33 -24 12 -31 12 -53 -1z"/>
<path d="M2834 903 c2 -10 10 -44 17 -76 12 -58 13 -58 43 -51 48 10 68 26 24
19 -40 -6 -37 -11 -64 98 -3 15 -10 27 -16 27 -5 0 -7 -8 -4 -17z"/>
<path d="M2336 819 c-9 -82 -2 -93 54 -85 41 6 70 37 70 76 0 39 -28 67 -76
75 l-41 6 -7 -72z m88 35 c9 -8 16 -28 16 -44 0 -37 -24 -60 -61 -60 -25 0
-29 4 -29 29 0 62 11 91 36 91 12 0 30 -7 38 -16z"/>
<path d="M2605 818 c4 -40 9 -75 10 -78 5 -9 85 1 85 10 0 5 -16 6 -36 3 -34
-6 -36 -5 -32 23 2 23 9 30 33 35 29 6 29 7 -7 8 -33 1 -38 4 -38 24 0 19 8
26 38 34 l37 10 -49 2 -48 1 7 -72z"/>
</g>
</svg>
